<svg width="438" height="120" viewBox="0 0 438 120" fill="none" xmlns="http://www.w3.org/2000/svg">
<g clip-path="url(#clip0_108_4716)">
<path d="M49.0638 119.197L46.7266 116.877C41.2274 111.395 33.3909 108.49 24.0937 108.49H23.8703C23.2172 108.49 17.3743 108.439 11.4969 106.703C1.49511 103.73 0 98.0589 0 94.9484V0H98.1277V95.0171C98.1277 108.353 74.4636 108.508 74.223 108.508H74.0855C64.9602 108.508 56.9003 111.463 51.401 116.86L49.0467 119.18L49.0638 119.197Z" fill="white"/>
<path d="M3.33203 3.33447V94.9318C3.33203 99.7608 8.29856 102.253 12.4402 103.49C17.9567 105.123 23.6278 105.14 23.8684 105.14H24.0918C34.3342 105.14 42.9268 108.371 49.0791 114.489C55.2142 108.474 64.0303 105.174 74.1008 105.174H74.2383C74.4445 105.174 94.7918 104.848 94.7918 95.0177V3.33447H3.33203Z" fill="#009FE3"/>
<path d="M16.3086 29.5762V101.221C20.3128 101.995 23.7326 102.012 23.9045 102.012H24.1279C25.9323 102.012 27.7024 102.115 29.4209 102.304V29.5762H16.3086Z" fill="white"/>
<path d="M42.5156 29.5762V106.085C44.9044 107.305 47.1213 108.783 49.1148 110.519C51.0739 108.869 53.2564 107.425 55.6108 106.239V29.5762H42.5156Z" fill="white"/>
<path d="M68.7227 29.5762V102.356C70.4927 102.149 72.2972 102.029 74.136 102.029H74.2735C76.3013 102.012 79.0682 101.771 81.835 101.221V29.5762H68.7398H68.7227Z" fill="white"/>
<path d="M18.6129 17.3917V17.4261L22.8748 22.3239H19.3347L16.0867 18.0104H12.7184V22.3239H9.79688V10.2427H16.1726C19.8502 10.2427 21.7234 11.6519 21.7234 14.0406C21.7234 15.6732 20.6064 17.0996 18.6301 17.4089M16.0867 12.4252H12.7355V16.0513H15.9836C17.8911 16.0513 18.6988 15.467 18.6988 14.1609C18.6988 12.9923 17.977 12.4252 16.1039 12.4252" fill="white"/>
<path d="M35.1289 19.8836H27.6705L26.4676 22.3411H23.3398L29.8359 10.2427H33.0667L39.5971 22.3411H36.2975L35.1117 19.8836H35.1289ZM30.8842 13.336L28.736 17.7011H34.0978L32.0012 13.336L31.4856 12.1331H31.4341L30.8842 13.336Z" fill="white"/>
<path d="M51.0047 12.9755C50.0252 12.6662 48.7535 12.4084 47.2755 12.4084C43.7869 12.4084 42.5496 13.5942 42.5496 16.2579C42.5496 19.0591 43.8213 20.2105 47.3443 20.2105C48.7363 20.2105 49.9736 19.9355 51.0047 19.5231L51.3828 21.654C50.1798 22.1868 48.5472 22.582 47.0006 22.582C41.9653 22.582 39.5078 20.2277 39.5078 16.2579C39.5078 12.563 41.8622 10.0024 47.2584 10.0024C48.7363 10.0024 50.3173 10.2946 51.3484 10.6383L51.0219 12.9583L51.0047 12.9755Z" fill="white"/>
<path d="M56.5574 10.2427H53.6016V22.3411H56.5574V10.2427Z" fill="white"/>
<path d="M71.1125 22.3411L63.2417 14.8311L62.3137 13.9203L62.2622 13.9375L62.2965 15.2436V22.3411H59.6328V10.2427H62.0903L69.4628 17.4433L70.3736 18.3713L70.408 18.3369L70.3736 17.048V10.2427H73.0201V22.3411H71.1125Z" fill="white"/>
<path d="M88.1405 21.8078C86.8516 22.2718 84.944 22.5812 83.174 22.5812C77.6059 22.5812 75.2344 20.1752 75.2344 16.3085C75.2344 12.4419 77.6231 9.98438 83.174 9.98438C84.8237 9.98438 86.5766 10.225 87.8655 10.6546L87.5734 13.009C86.3188 12.6137 84.8409 12.3731 83.3114 12.3731C79.6682 12.3731 78.2934 13.4902 78.2934 16.2742C78.2934 19.0582 79.5135 20.2096 83.0537 20.2096C84.0332 20.2096 84.8581 20.0893 85.5799 19.8831V16.0508H88.1233V21.825L88.1405 21.8078Z" fill="white"/>
<path d="M208.316 79.758L208.264 81.3562H198.297V70.667H207.921L207.972 72.2824H200.239V75.1352H206.855V76.51H200.239V79.758H208.316Z" fill="white"/>
<path d="M219.968 79.6721L219.916 81.3562H210.602V70.667H212.526V79.6721H219.968Z" fill="white"/>
<path d="M233.302 77.7129H229.934V81.3562H227.992V70.667H233.285C236.86 70.667 238.338 72.0418 238.338 74.2415C238.338 76.2694 236.843 77.7301 233.285 77.7301M233.285 72.1793H229.917V76.2866H233.285C235.33 76.2866 236.361 75.7195 236.361 74.2415C236.361 72.7636 235.365 72.1793 233.285 72.1793Z" fill="white"/>
<path d="M247.911 76.8015L247.876 76.8359L248.65 77.678L251.863 81.3728H249.492L246.209 77.214H242.686V81.3728H240.762V70.6836H246.278C249.389 70.6836 250.867 71.8866 250.867 73.8457C250.867 75.3752 249.853 76.5781 247.911 76.8015ZM246.227 72.1615H242.686V75.8392H246.072C248.031 75.8392 248.856 75.1861 248.856 73.9316C248.856 72.7974 248.1 72.1615 246.209 72.1615" fill="white"/>
<path d="M256.467 70.667H254.508V81.3562H256.467V70.667Z" fill="white"/>
<path d="M262.862 70.667L268.104 79.3455L273.345 70.667H275.476V81.3562H273.723V74.1728L273.74 73.0214L273.723 73.0042L273.139 74.0181L268.757 81.3562H267.399L263.017 74.0869L262.45 73.0729L262.415 73.0901L262.433 74.2415V81.3562H260.68V70.667H262.862Z" fill="white"/>
<path d="M289.447 79.758L289.396 81.3562H279.445V70.667H289.069L289.103 72.2824H281.387V75.1352H287.986V76.51H281.387V79.758H289.447Z" fill="white"/>
<path d="M299.588 76.8015V76.8359L300.327 77.678L303.541 81.3728H301.169L297.887 77.214H294.364V81.3728H292.422V70.6836H297.956C301.049 70.6836 302.544 71.8866 302.544 73.8457C302.544 75.3752 301.513 76.5781 299.588 76.8015ZM297.904 72.1615H294.381V75.8392H297.766C299.726 75.8392 300.55 75.1861 300.55 73.9316C300.55 72.7974 299.812 72.1615 297.904 72.1615Z" fill="white"/>
<path d="M322.117 80.8059C320.966 81.2871 319.299 81.5792 317.649 81.5792C312.837 81.5792 310.758 79.5685 310.758 76.0284C310.758 72.4882 312.872 70.4775 317.683 70.4775C319.144 70.4775 320.708 70.7353 321.825 71.0962L321.636 72.7116C320.519 72.3164 319.213 72.0758 317.769 72.0758C314.281 72.0758 312.803 73.1928 312.803 75.9768C312.803 78.7608 314.092 79.9294 317.598 79.9294C318.715 79.9294 319.643 79.7919 320.45 79.4998V75.8221H322.117V80.7887V80.8059Z" fill="white"/>
<path d="M332.565 76.8015V76.8359L333.304 77.678L336.534 81.3728H334.146L330.863 77.214H327.34V81.3728H325.398V70.6836H330.915C334.025 70.6836 335.503 71.8866 335.503 73.8457C335.503 75.3752 334.489 76.5781 332.547 76.8015M330.863 72.1615H327.323V75.8392H330.709C332.651 75.8392 333.493 75.1861 333.493 73.9316C333.493 72.7974 332.754 72.1615 330.863 72.1615Z" fill="white"/>
<path d="M348.08 78.9159H340.845L339.556 81.3562H337.477L343.423 70.667H345.571L351.551 81.3562H349.334L348.08 78.9159ZM343.973 72.9698L341.618 77.438H347.341L345.021 72.9698L344.522 71.9387H344.488L343.973 72.9698Z" fill="white"/>
<path d="M364.063 81.3562L356.329 73.915L355.522 73.0729L355.47 73.0901L355.487 74.2415V81.3562H353.734V70.667H355.419L362.791 77.8504L363.599 78.6753L363.633 78.6409L363.599 77.5067V70.6842H365.334V81.3562H364.063Z" fill="white"/>
<path d="M374.858 81.3562H369.324V70.667H374.858C379.36 70.667 381.268 72.712 381.268 75.9944C381.268 79.5518 379.068 81.3562 374.858 81.3562ZM374.772 72.334H371.266V79.6892H374.772C377.831 79.6892 379.223 78.6581 379.223 76.0116C379.223 73.5369 378.003 72.3511 374.772 72.3511" fill="white"/>
<path d="M393.882 79.758L393.831 81.3562H383.863V70.667H393.504L393.539 72.2824H385.805V75.1352H392.422V76.51H385.805V79.758H393.882Z" fill="white"/>
<path d="M172.432 52.124L172.398 52.1927L180.904 61.9539H173.858L167.38 53.3785H160.66V61.9539H154.852V37.8774H167.534C174.855 37.8774 178.584 40.6786 178.584 45.4218C178.584 48.6526 176.367 51.4881 172.432 52.124ZM167.345 42.2081H160.66V49.4259H167.139C170.92 49.4259 172.518 48.2401 172.518 45.6623C172.518 43.3595 171.074 42.2081 167.345 42.2081Z" fill="white"/>
<path d="M205.309 57.0725H190.461L188.073 61.9359H181.852L194.758 37.8594H201.219L214.229 61.9359H207.681L205.344 57.0725H205.309ZM196.837 44.0632L192.558 52.759H203.247L199.071 44.0632L198.023 41.6917H197.937L196.837 44.0632Z" fill="white"/>
<path d="M236.225 43.2902C234.266 42.6716 231.74 42.156 228.801 42.156C221.824 42.156 219.384 44.5448 219.384 49.8378C219.384 55.423 221.927 57.6915 228.921 57.6915C231.671 57.6915 234.146 57.1587 236.208 56.3166L236.947 60.5614C234.541 61.6097 231.293 62.4174 228.217 62.4174C218.198 62.4174 213.266 57.743 213.266 49.8378C213.266 42.4653 217.974 37.3613 228.698 37.3613C231.654 37.3613 234.816 37.9456 236.844 38.6502L236.208 43.273L236.225 43.2902Z" fill="white"/>
<path d="M247.995 37.8594H242.117V61.9359H247.995V37.8594Z" fill="white"/>
<path d="M276.949 61.9359L261.258 47.0191L259.437 45.1975L259.351 45.2147L259.402 47.8096V61.9359H254.109V37.8594H259.007L273.666 52.1919L275.488 54.0479L275.557 53.9791L275.488 51.4185V37.8594H280.746V61.9359H276.949Z" fill="white"/>
<path d="M310.86 60.9227C308.282 61.8679 304.501 62.4693 300.978 62.4693C289.894 62.4693 285.168 57.709 285.168 49.9757C285.168 42.2423 289.928 37.3789 300.978 37.3789C304.244 37.3789 307.749 37.8601 310.327 38.7022L309.743 43.3937C307.268 42.6032 304.295 42.122 301.253 42.122C293.967 42.122 291.269 44.3217 291.269 49.8898C291.269 55.4578 293.709 57.709 300.755 57.709C302.697 57.709 304.364 57.4856 305.807 57.0732V49.4258H310.86V60.9227Z" fill="white"/>
<path d="M351.761 43.2735C349.768 42.6549 347.224 42.1393 344.251 42.1393C337.205 42.1393 334.748 44.5452 334.748 49.8898C334.748 55.5438 337.308 57.8466 344.389 57.8466C347.19 57.8466 349.664 57.2795 351.761 56.4374L352.5 60.7165C350.06 61.782 346.794 62.5897 343.667 62.5897C333.545 62.5897 328.578 57.8638 328.578 49.8727C328.578 42.4486 333.321 37.2759 344.148 37.2759C347.138 37.2759 350.317 37.8602 352.397 38.5648L351.761 43.2392V43.2735Z" fill="white"/>
<path d="M378.912 57.2275L378.792 62.1253H357.293V37.791H363.119V57.2275H378.912Z" fill="white"/>
<path d="M408.418 51.2642C408.418 59.0148 403.658 62.6409 394.928 62.6409C386.198 62.6409 381.266 59.0148 381.266 51.2642V37.791H387.109V51.2986C387.109 55.6465 389.652 57.8118 394.928 57.8118C400.204 57.8118 402.627 55.6465 402.627 51.2986V37.791H408.435V51.2642H408.418Z" fill="white"/>
<path d="M427.254 62.1253H412.887V37.791H426.669C433.354 37.791 436.671 40.3516 436.671 44.0464C436.671 47.0023 434.884 48.6521 432.461 49.4082V49.4598C436.156 50.1988 438.012 52.3469 438.012 55.0106C438.012 59.3585 434.97 62.1081 427.271 62.1081M426.48 42.2248H418.472V47.8959H426.944C429.66 47.8959 431.172 46.9164 431.172 45.0776C431.172 43.2387 429.711 42.2248 426.497 42.2248M427.254 51.5908H418.489V57.7946H427.254C430.57 57.7946 432.306 56.901 432.306 54.581C432.306 52.725 430.725 51.5908 427.254 51.5908Z" fill="white"/>
<path d="M166.905 0.0688477H154.875V3.24812H166.905V0.0688477Z" fill="white"/>
<path d="M166.905 109.882H154.875V113.061H166.905V109.882Z" fill="white"/>
</g>
<defs>
<clipPath id="clip0_108_4716">
<rect width="438" height="119.197" fill="white"/>
</clipPath>
</defs>
</svg>
